<mxfile host="app.diagrams.net" modified="2020-08-27T12:06:31.138Z" agent="5.0 (Macintosh; Intel Mac OS X 10_15_6) AppleWebKit/537.36 (KHTML, like Gecko) Chrome/84.0.4147.135 Safari/537.36" etag="G9EiCS0_4QPfBUroWlOI" version="13.6.4" type="github">
  <diagram id="kU7BCDKSblHahvN3yh2O" name="Page-1">
    <mxGraphModel dx="933" dy="482" grid="1" gridSize="10" guides="1" tooltips="1" connect="1" arrows="1" fold="1" page="1" pageScale="1" pageWidth="827" pageHeight="1169" math="0" shadow="0">
      <root>
        <mxCell id="0" />
        <mxCell id="1" parent="0" />
        <mxCell id="Xw_bEn0U_nsCSRlwuGrD-70" value="" style="html=1;shadow=0;dashed=0;align=center;verticalAlign=middle;shape=mxgraph.arrows2.arrow;dy=0;dx=10;notch=0;" vertex="1" parent="1">
          <mxGeometry x="150" y="390" width="1490" height="40" as="geometry" />
        </mxCell>
        <mxCell id="Xw_bEn0U_nsCSRlwuGrD-2" value="" style="html=1;shadow=0;align=center;verticalAlign=middle;shape=mxgraph.arrows2.arrow;dy=0;dx=10;notch=0;" vertex="1" parent="1">
          <mxGeometry x="150" y="40" width="1490" height="40" as="geometry" />
        </mxCell>
        <mxCell id="Xw_bEn0U_nsCSRlwuGrD-3" value="" style="html=1;shadow=0;dashed=0;align=center;verticalAlign=middle;shape=mxgraph.arrows2.arrow;dy=0;dx=10;notch=0;" vertex="1" parent="1">
          <mxGeometry x="150" y="290" width="1490" height="40" as="geometry" />
        </mxCell>
        <mxCell id="Xw_bEn0U_nsCSRlwuGrD-4" value="" style="html=1;shadow=0;dashed=0;align=center;verticalAlign=middle;shape=mxgraph.arrows2.arrow;dy=0;dx=10;notch=0;" vertex="1" parent="1">
          <mxGeometry x="150" y="240" width="1490" height="40" as="geometry" />
        </mxCell>
        <mxCell id="Xw_bEn0U_nsCSRlwuGrD-5" value="" style="html=1;shadow=0;dashed=0;align=center;verticalAlign=middle;shape=mxgraph.arrows2.arrow;dy=0;dx=10;notch=0;" vertex="1" parent="1">
          <mxGeometry x="150" y="190" width="1490" height="40" as="geometry" />
        </mxCell>
        <mxCell id="Xw_bEn0U_nsCSRlwuGrD-6" value="" style="html=1;shadow=0;dashed=0;align=center;verticalAlign=middle;shape=mxgraph.arrows2.arrow;dy=0;dx=10;notch=0;" vertex="1" parent="1">
          <mxGeometry x="150" y="90" width="1490" height="40" as="geometry" />
        </mxCell>
        <mxCell id="Xw_bEn0U_nsCSRlwuGrD-7" value="" style="html=1;shadow=0;dashed=0;align=center;verticalAlign=middle;shape=mxgraph.arrows2.arrow;dy=0;dx=10;notch=0;" vertex="1" parent="1">
          <mxGeometry x="150" y="140" width="1490" height="40" as="geometry" />
        </mxCell>
        <mxCell id="Xw_bEn0U_nsCSRlwuGrD-11" value="&lt;font style=&quot;font-size: 11px&quot;&gt;Q2 2020&lt;/font&gt;" style="text;html=1;resizable=0;autosize=1;align=center;verticalAlign=middle;points=[];fillColor=none;strokeColor=none;rounded=0;" vertex="1" parent="1">
          <mxGeometry x="220" y="10" width="60" height="20" as="geometry" />
        </mxCell>
        <mxCell id="Xw_bEn0U_nsCSRlwuGrD-12" value="&lt;font style=&quot;font-size: 11px&quot;&gt;Q3 2020&lt;/font&gt;" style="text;html=1;resizable=0;autosize=1;align=center;verticalAlign=middle;points=[];fillColor=none;strokeColor=none;rounded=0;" vertex="1" parent="1">
          <mxGeometry x="290" y="10" width="60" height="20" as="geometry" />
        </mxCell>
        <mxCell id="Xw_bEn0U_nsCSRlwuGrD-13" value="&lt;font style=&quot;font-size: 11px&quot;&gt;Q4 2020&lt;/font&gt;" style="text;html=1;resizable=0;autosize=1;align=center;verticalAlign=middle;points=[];fillColor=none;strokeColor=none;rounded=0;" vertex="1" parent="1">
          <mxGeometry x="354" y="10" width="60" height="20" as="geometry" />
        </mxCell>
        <mxCell id="Xw_bEn0U_nsCSRlwuGrD-14" value="&lt;font style=&quot;font-size: 11px&quot;&gt;Q1 2021&lt;/font&gt;" style="text;html=1;resizable=0;autosize=1;align=center;verticalAlign=middle;points=[];fillColor=none;strokeColor=none;rounded=0;" vertex="1" parent="1">
          <mxGeometry x="430" y="10" width="60" height="20" as="geometry" />
        </mxCell>
        <mxCell id="Xw_bEn0U_nsCSRlwuGrD-15" value="&lt;font style=&quot;font-size: 11px&quot;&gt;Q2 2021&lt;/font&gt;" style="text;html=1;resizable=0;autosize=1;align=center;verticalAlign=middle;points=[];fillColor=none;strokeColor=none;rounded=0;" vertex="1" parent="1">
          <mxGeometry x="500" y="10" width="60" height="20" as="geometry" />
        </mxCell>
        <mxCell id="Xw_bEn0U_nsCSRlwuGrD-16" value="&lt;font style=&quot;font-size: 11px&quot;&gt;Q3 2021&lt;/font&gt;" style="text;html=1;resizable=0;autosize=1;align=center;verticalAlign=middle;points=[];fillColor=none;strokeColor=none;rounded=0;" vertex="1" parent="1">
          <mxGeometry x="570" y="10" width="60" height="20" as="geometry" />
        </mxCell>
        <mxCell id="Xw_bEn0U_nsCSRlwuGrD-17" value="&lt;font style=&quot;font-size: 11px&quot;&gt;SLES11 SP4&lt;/font&gt;" style="text;html=1;resizable=0;autosize=1;align=center;verticalAlign=middle;points=[];fillColor=none;strokeColor=none;rounded=0;" vertex="1" parent="1">
          <mxGeometry x="70" y="50" width="80" height="20" as="geometry" />
        </mxCell>
        <mxCell id="Xw_bEn0U_nsCSRlwuGrD-18" value="&lt;font style=&quot;font-size: 11px&quot;&gt;SLES12 SP1&lt;/font&gt;" style="text;html=1;resizable=0;autosize=1;align=center;verticalAlign=middle;points=[];fillColor=none;strokeColor=none;rounded=0;" vertex="1" parent="1">
          <mxGeometry x="70" y="100" width="80" height="20" as="geometry" />
        </mxCell>
        <mxCell id="Xw_bEn0U_nsCSRlwuGrD-19" value="&lt;font style=&quot;font-size: 11px&quot;&gt;SLES12 SP3&lt;/font&gt;" style="text;html=1;resizable=0;autosize=1;align=center;verticalAlign=middle;points=[];fillColor=none;strokeColor=none;rounded=0;" vertex="1" parent="1">
          <mxGeometry x="70" y="150" width="80" height="20" as="geometry" />
        </mxCell>
        <mxCell id="Xw_bEn0U_nsCSRlwuGrD-20" value="&lt;font style=&quot;font-size: 11px&quot;&gt;SLES12 SP4&lt;/font&gt;" style="text;html=1;resizable=0;autosize=1;align=center;verticalAlign=middle;points=[];fillColor=none;strokeColor=none;rounded=0;" vertex="1" parent="1">
          <mxGeometry x="70" y="200" width="80" height="20" as="geometry" />
        </mxCell>
        <mxCell id="Xw_bEn0U_nsCSRlwuGrD-21" value="&lt;font style=&quot;font-size: 11px&quot;&gt;SLES12 SP5&lt;/font&gt;" style="text;html=1;resizable=0;autosize=1;align=center;verticalAlign=middle;points=[];fillColor=none;strokeColor=none;rounded=0;" vertex="1" parent="1">
          <mxGeometry x="70" y="250" width="80" height="20" as="geometry" />
        </mxCell>
        <mxCell id="Xw_bEn0U_nsCSRlwuGrD-22" value="&lt;font style=&quot;font-size: 11px&quot;&gt;SLES15 SP1&lt;/font&gt;" style="text;html=1;resizable=0;autosize=1;align=center;verticalAlign=middle;points=[];fillColor=none;strokeColor=none;rounded=0;" vertex="1" parent="1">
          <mxGeometry x="70" y="300" width="80" height="20" as="geometry" />
        </mxCell>
        <mxCell id="Xw_bEn0U_nsCSRlwuGrD-23" value="" style="html=1;shadow=0;dashed=0;align=center;verticalAlign=middle;shape=mxgraph.arrows2.arrow;dy=0;dx=10;notch=0;" vertex="1" parent="1">
          <mxGeometry x="150" y="340" width="1490" height="40" as="geometry" />
        </mxCell>
        <mxCell id="Xw_bEn0U_nsCSRlwuGrD-24" value="&lt;font style=&quot;font-size: 11px&quot;&gt;SLES15 SP2&lt;/font&gt;" style="text;html=1;resizable=0;autosize=1;align=center;verticalAlign=middle;points=[];fillColor=none;strokeColor=none;rounded=0;" vertex="1" parent="1">
          <mxGeometry x="70" y="350" width="80" height="20" as="geometry" />
        </mxCell>
        <mxCell id="Xw_bEn0U_nsCSRlwuGrD-10" value="&lt;font style=&quot;font-size: 11px&quot;&gt;Q1 2020&lt;/font&gt;" style="text;html=1;resizable=0;autosize=1;align=center;verticalAlign=middle;points=[];fillColor=none;strokeColor=none;rounded=0;" vertex="1" parent="1">
          <mxGeometry x="155" y="10" width="60" height="20" as="geometry" />
        </mxCell>
        <mxCell id="Xw_bEn0U_nsCSRlwuGrD-26" value="" style="rounded=1;whiteSpace=wrap;html=1;direction=south;perimeterSpacing=1;opacity=30;dashed=1;" vertex="1" parent="1">
          <mxGeometry x="160" y="30" width="50" height="420" as="geometry" />
        </mxCell>
        <mxCell id="Xw_bEn0U_nsCSRlwuGrD-27" value="" style="rounded=1;whiteSpace=wrap;html=1;direction=south;opacity=30;dashed=1;" vertex="1" parent="1">
          <mxGeometry x="220" y="30" width="60" height="420" as="geometry" />
        </mxCell>
        <mxCell id="Xw_bEn0U_nsCSRlwuGrD-28" value="" style="rounded=1;whiteSpace=wrap;html=1;direction=south;dashed=1;opacity=30;" vertex="1" parent="1">
          <mxGeometry x="290" y="30" width="60" height="420" as="geometry" />
        </mxCell>
        <mxCell id="Xw_bEn0U_nsCSRlwuGrD-29" value="" style="rounded=1;whiteSpace=wrap;html=1;direction=south;dashed=1;opacity=30;glass=1;" vertex="1" parent="1">
          <mxGeometry x="360" y="30" width="60" height="420" as="geometry" />
        </mxCell>
        <mxCell id="Xw_bEn0U_nsCSRlwuGrD-30" value="" style="rounded=1;whiteSpace=wrap;html=1;direction=south;dashed=1;opacity=30;" vertex="1" parent="1">
          <mxGeometry x="430" y="30" width="60" height="420" as="geometry" />
        </mxCell>
        <mxCell id="Xw_bEn0U_nsCSRlwuGrD-31" value="" style="rounded=1;whiteSpace=wrap;html=1;direction=south;dashed=1;opacity=30;" vertex="1" parent="1">
          <mxGeometry x="500" y="30" width="60" height="420" as="geometry" />
        </mxCell>
        <mxCell id="Xw_bEn0U_nsCSRlwuGrD-32" value="" style="rounded=1;whiteSpace=wrap;html=1;direction=south;dashed=1;opacity=30;" vertex="1" parent="1">
          <mxGeometry x="570" y="30" width="60" height="420" as="geometry" />
        </mxCell>
        <mxCell id="Xw_bEn0U_nsCSRlwuGrD-34" value="&lt;font style=&quot;font-size: 11px&quot;&gt;Q4 2021&lt;/font&gt;" style="text;html=1;resizable=0;autosize=1;align=center;verticalAlign=middle;points=[];fillColor=none;strokeColor=none;rounded=0;" vertex="1" parent="1">
          <mxGeometry x="640" y="10" width="60" height="20" as="geometry" />
        </mxCell>
        <mxCell id="Xw_bEn0U_nsCSRlwuGrD-35" value="" style="rounded=1;whiteSpace=wrap;html=1;direction=south;dashed=1;opacity=30;" vertex="1" parent="1">
          <mxGeometry x="640" y="30" width="60" height="420" as="geometry" />
        </mxCell>
        <mxCell id="Xw_bEn0U_nsCSRlwuGrD-36" value="" style="rounded=1;whiteSpace=wrap;html=1;direction=south;dashed=1;opacity=30;" vertex="1" parent="1">
          <mxGeometry x="710" y="30" width="60" height="420" as="geometry" />
        </mxCell>
        <mxCell id="Xw_bEn0U_nsCSRlwuGrD-37" value="&lt;font style=&quot;font-size: 11px&quot;&gt;Q1 2022&lt;/font&gt;" style="text;html=1;resizable=0;autosize=1;align=center;verticalAlign=middle;points=[];fillColor=none;strokeColor=none;rounded=0;" vertex="1" parent="1">
          <mxGeometry x="710" y="10" width="60" height="20" as="geometry" />
        </mxCell>
        <mxCell id="Xw_bEn0U_nsCSRlwuGrD-38" value="" style="rounded=1;whiteSpace=wrap;html=1;direction=south;dashed=1;opacity=30;" vertex="1" parent="1">
          <mxGeometry x="780" y="30" width="60" height="420" as="geometry" />
        </mxCell>
        <mxCell id="Xw_bEn0U_nsCSRlwuGrD-39" value="" style="rounded=1;whiteSpace=wrap;html=1;direction=south;dashed=1;opacity=30;" vertex="1" parent="1">
          <mxGeometry x="850" y="30" width="60" height="420" as="geometry" />
        </mxCell>
        <mxCell id="Xw_bEn0U_nsCSRlwuGrD-40" value="&lt;font style=&quot;font-size: 11px&quot;&gt;Q2 2022&lt;/font&gt;" style="text;html=1;resizable=0;autosize=1;align=center;verticalAlign=middle;points=[];fillColor=none;strokeColor=none;rounded=0;" vertex="1" parent="1">
          <mxGeometry x="780" y="10" width="60" height="20" as="geometry" />
        </mxCell>
        <mxCell id="Xw_bEn0U_nsCSRlwuGrD-41" value="&lt;font style=&quot;font-size: 11px&quot;&gt;Q3 2022&lt;/font&gt;" style="text;html=1;resizable=0;autosize=1;align=center;verticalAlign=middle;points=[];fillColor=none;strokeColor=none;rounded=0;" vertex="1" parent="1">
          <mxGeometry x="850" y="10" width="60" height="20" as="geometry" />
        </mxCell>
        <mxCell id="Xw_bEn0U_nsCSRlwuGrD-42" value="" style="rounded=1;whiteSpace=wrap;html=1;direction=south;dashed=1;opacity=30;" vertex="1" parent="1">
          <mxGeometry x="920" y="30" width="60" height="420" as="geometry" />
        </mxCell>
        <mxCell id="Xw_bEn0U_nsCSRlwuGrD-43" value="&lt;font style=&quot;font-size: 11px&quot;&gt;Q4 2022&lt;/font&gt;" style="text;html=1;resizable=0;autosize=1;align=center;verticalAlign=middle;points=[];fillColor=none;strokeColor=none;rounded=0;" vertex="1" parent="1">
          <mxGeometry x="920" y="10" width="60" height="20" as="geometry" />
        </mxCell>
        <mxCell id="Xw_bEn0U_nsCSRlwuGrD-44" value="" style="rounded=0;whiteSpace=wrap;html=1;glass=1;dashed=1;opacity=30;" vertex="1" parent="1">
          <mxGeometry x="480" y="230" width="120" height="60" as="geometry" />
        </mxCell>
        <mxCell id="Xw_bEn0U_nsCSRlwuGrD-45" value="" style="rounded=0;whiteSpace=wrap;html=1;glass=1;opacity=30;fillColor=#66FF66;" vertex="1" parent="1">
          <mxGeometry x="160" y="45" width="610" height="30" as="geometry" />
        </mxCell>
        <mxCell id="Xw_bEn0U_nsCSRlwuGrD-46" value="" style="rounded=0;whiteSpace=wrap;html=1;glass=1;opacity=30;fillColor=#66FF66;" vertex="1" parent="1">
          <mxGeometry x="160" y="95" width="330" height="30" as="geometry" />
        </mxCell>
        <mxCell id="Xw_bEn0U_nsCSRlwuGrD-47" value="" style="rounded=0;whiteSpace=wrap;html=1;glass=1;opacity=30;fillColor=#66FF66;" vertex="1" parent="1">
          <mxGeometry x="160" y="145" width="680" height="30" as="geometry" />
        </mxCell>
        <mxCell id="Xw_bEn0U_nsCSRlwuGrD-48" value="" style="rounded=0;whiteSpace=wrap;html=1;glass=1;opacity=30;fillColor=#66FF66;" vertex="1" parent="1">
          <mxGeometry x="160" y="195" width="1030" height="25" as="geometry" />
        </mxCell>
        <mxCell id="Xw_bEn0U_nsCSRlwuGrD-49" value="" style="rounded=1;whiteSpace=wrap;html=1;direction=south;dashed=1;opacity=30;" vertex="1" parent="1">
          <mxGeometry x="990" y="30" width="60" height="420" as="geometry" />
        </mxCell>
        <mxCell id="Xw_bEn0U_nsCSRlwuGrD-50" value="" style="rounded=1;whiteSpace=wrap;html=1;direction=south;dashed=1;opacity=30;" vertex="1" parent="1">
          <mxGeometry x="1060" y="30" width="60" height="420" as="geometry" />
        </mxCell>
        <mxCell id="Xw_bEn0U_nsCSRlwuGrD-51" value="" style="rounded=1;whiteSpace=wrap;html=1;direction=south;dashed=1;opacity=30;" vertex="1" parent="1">
          <mxGeometry x="1130" y="30" width="60" height="420" as="geometry" />
        </mxCell>
        <mxCell id="Xw_bEn0U_nsCSRlwuGrD-52" value="" style="rounded=1;whiteSpace=wrap;html=1;direction=south;dashed=1;opacity=30;" vertex="1" parent="1">
          <mxGeometry x="1200" y="30" width="60" height="420" as="geometry" />
        </mxCell>
        <mxCell id="Xw_bEn0U_nsCSRlwuGrD-53" value="" style="rounded=1;whiteSpace=wrap;html=1;direction=south;dashed=1;opacity=30;" vertex="1" parent="1">
          <mxGeometry x="1270" y="30" width="60" height="420" as="geometry" />
        </mxCell>
        <mxCell id="Xw_bEn0U_nsCSRlwuGrD-54" value="" style="rounded=1;whiteSpace=wrap;html=1;direction=south;dashed=1;opacity=30;" vertex="1" parent="1">
          <mxGeometry x="1340" y="30" width="60" height="420" as="geometry" />
        </mxCell>
        <mxCell id="Xw_bEn0U_nsCSRlwuGrD-55" value="" style="rounded=1;whiteSpace=wrap;html=1;direction=south;dashed=1;opacity=30;" vertex="1" parent="1">
          <mxGeometry x="1410" y="30" width="60" height="420" as="geometry" />
        </mxCell>
        <mxCell id="Xw_bEn0U_nsCSRlwuGrD-56" value="" style="rounded=1;whiteSpace=wrap;html=1;direction=south;dashed=1;opacity=30;" vertex="1" parent="1">
          <mxGeometry x="1480" y="30" width="60" height="420" as="geometry" />
        </mxCell>
        <mxCell id="Xw_bEn0U_nsCSRlwuGrD-57" value="" style="rounded=1;whiteSpace=wrap;html=1;direction=south;dashed=1;opacity=30;" vertex="1" parent="1">
          <mxGeometry x="1550" y="30" width="60" height="420" as="geometry" />
        </mxCell>
        <mxCell id="Xw_bEn0U_nsCSRlwuGrD-58" value="&lt;font style=&quot;font-size: 11px&quot;&gt;Q4 2022&lt;/font&gt;" style="text;html=1;resizable=0;autosize=1;align=center;verticalAlign=middle;points=[];fillColor=none;strokeColor=none;rounded=0;" vertex="1" parent="1">
          <mxGeometry x="990" y="10" width="60" height="20" as="geometry" />
        </mxCell>
        <mxCell id="Xw_bEn0U_nsCSRlwuGrD-59" value="&lt;font style=&quot;font-size: 11px&quot;&gt;Q1 2023&lt;/font&gt;" style="text;html=1;resizable=0;autosize=1;align=center;verticalAlign=middle;points=[];fillColor=none;strokeColor=none;rounded=0;" vertex="1" parent="1">
          <mxGeometry x="1060" y="10" width="60" height="20" as="geometry" />
        </mxCell>
        <mxCell id="Xw_bEn0U_nsCSRlwuGrD-60" value="&lt;font style=&quot;font-size: 11px&quot;&gt;Q2 2023&lt;/font&gt;" style="text;html=1;resizable=0;autosize=1;align=center;verticalAlign=middle;points=[];fillColor=none;strokeColor=none;rounded=0;" vertex="1" parent="1">
          <mxGeometry x="1130" y="10" width="60" height="20" as="geometry" />
        </mxCell>
        <mxCell id="Xw_bEn0U_nsCSRlwuGrD-61" value="&lt;font style=&quot;font-size: 11px&quot;&gt;Q3 2023&lt;/font&gt;" style="text;html=1;resizable=0;autosize=1;align=center;verticalAlign=middle;points=[];fillColor=none;strokeColor=none;rounded=0;" vertex="1" parent="1">
          <mxGeometry x="1200" y="10" width="60" height="20" as="geometry" />
        </mxCell>
        <mxCell id="Xw_bEn0U_nsCSRlwuGrD-62" value="&lt;font style=&quot;font-size: 11px&quot;&gt;Q4 2023&lt;/font&gt;" style="text;html=1;resizable=0;autosize=1;align=center;verticalAlign=middle;points=[];fillColor=none;strokeColor=none;rounded=0;" vertex="1" parent="1">
          <mxGeometry x="1270" y="10" width="60" height="20" as="geometry" />
        </mxCell>
        <mxCell id="Xw_bEn0U_nsCSRlwuGrD-63" value="&lt;font style=&quot;font-size: 11px&quot;&gt;Q1 2024&lt;/font&gt;" style="text;html=1;resizable=0;autosize=1;align=center;verticalAlign=middle;points=[];fillColor=none;strokeColor=none;rounded=0;" vertex="1" parent="1">
          <mxGeometry x="1340" y="10" width="60" height="20" as="geometry" />
        </mxCell>
        <mxCell id="Xw_bEn0U_nsCSRlwuGrD-64" value="&lt;font style=&quot;font-size: 11px&quot;&gt;Q2 2024&lt;/font&gt;" style="text;html=1;resizable=0;autosize=1;align=center;verticalAlign=middle;points=[];fillColor=none;strokeColor=none;rounded=0;" vertex="1" parent="1">
          <mxGeometry x="1410" y="10" width="60" height="20" as="geometry" />
        </mxCell>
        <mxCell id="Xw_bEn0U_nsCSRlwuGrD-65" value="&lt;font style=&quot;font-size: 11px&quot;&gt;Q3 2024&lt;/font&gt;" style="text;html=1;resizable=0;autosize=1;align=center;verticalAlign=middle;points=[];fillColor=none;strokeColor=none;rounded=0;" vertex="1" parent="1">
          <mxGeometry x="1480" y="10" width="60" height="20" as="geometry" />
        </mxCell>
        <mxCell id="Xw_bEn0U_nsCSRlwuGrD-66" value="&lt;font style=&quot;font-size: 11px&quot;&gt;Q4 2024&lt;/font&gt;" style="text;html=1;resizable=0;autosize=1;align=center;verticalAlign=middle;points=[];fillColor=none;strokeColor=none;rounded=0;" vertex="1" parent="1">
          <mxGeometry x="1550" y="10" width="60" height="20" as="geometry" />
        </mxCell>
        <mxCell id="Xw_bEn0U_nsCSRlwuGrD-67" value="" style="rounded=0;whiteSpace=wrap;html=1;glass=1;opacity=30;fillColor=#66FF66;" vertex="1" parent="1">
          <mxGeometry x="640" y="245" width="900" height="30" as="geometry" />
        </mxCell>
        <mxCell id="Xw_bEn0U_nsCSRlwuGrD-68" value="" style="rounded=0;whiteSpace=wrap;html=1;glass=1;opacity=30;fillColor=#66FF66;" vertex="1" parent="1">
          <mxGeometry x="430" y="295" width="760" height="30" as="geometry" />
        </mxCell>
        <mxCell id="Xw_bEn0U_nsCSRlwuGrD-69" value="&lt;font style=&quot;font-size: 11px&quot;&gt;SLES15 SP3&lt;/font&gt;" style="text;html=1;resizable=0;autosize=1;align=center;verticalAlign=middle;points=[];fillColor=none;strokeColor=none;rounded=0;" vertex="1" parent="1">
          <mxGeometry x="70" y="400" width="80" height="20" as="geometry" />
        </mxCell>
        <mxCell id="Xw_bEn0U_nsCSRlwuGrD-71" value="" style="rounded=0;whiteSpace=wrap;html=1;glass=1;opacity=30;fillColor=#66FF66;" vertex="1" parent="1">
          <mxGeometry x="640" y="345" width="970" height="30" as="geometry" />
        </mxCell>
        <mxCell id="Xw_bEn0U_nsCSRlwuGrD-73" value="" style="rounded=0;whiteSpace=wrap;html=1;glass=1;opacity=30;fillColor=#66FF66;" vertex="1" parent="1">
          <mxGeometry x="780" y="395" width="830" height="30" as="geometry" />
        </mxCell>
        <mxCell id="Xw_bEn0U_nsCSRlwuGrD-74" value="" style="rounded=0;whiteSpace=wrap;html=1;glass=1;opacity=30;fillColor=#FF6666;" vertex="1" parent="1">
          <mxGeometry x="770" y="47.5" width="840" height="25" as="geometry" />
        </mxCell>
        <mxCell id="Xw_bEn0U_nsCSRlwuGrD-75" value="" style="rounded=0;whiteSpace=wrap;html=1;glass=1;opacity=30;fillColor=#FF6666;" vertex="1" parent="1">
          <mxGeometry x="290" y="97.5" width="1320" height="25" as="geometry" />
        </mxCell>
        <mxCell id="Xw_bEn0U_nsCSRlwuGrD-76" value="" style="rounded=0;whiteSpace=wrap;html=1;glass=1;opacity=30;fillColor=#FF6666;" vertex="1" parent="1">
          <mxGeometry x="840" y="150" width="770" height="25" as="geometry" />
        </mxCell>
        <mxCell id="Xw_bEn0U_nsCSRlwuGrD-77" value="" style="rounded=0;whiteSpace=wrap;html=1;glass=1;opacity=30;fillColor=#FF6666;" vertex="1" parent="1">
          <mxGeometry x="1190" y="195" width="420" height="25" as="geometry" />
        </mxCell>
      </root>
    </mxGraphModel>
  </diagram>
</mxfile>
